<svg width="135" height="15" viewBox="0 0 135 15" fill="none" xmlns="http://www.w3.org/2000/svg">
<path d="M4.43602 0.534441L8.12919 8.54323L11.8224 0.534441H15.2043V14H12.7353V3.77115L8.91762 12.5269H7.32001L3.37786 3.48068V14H0.929579V0.534441H4.43602ZM24.0228 5.11979C24.3686 5.56241 24.6245 6.0742 24.7905 6.65515C24.9703 7.2361 25.0602 7.76863 25.0602 8.25276C25.0602 8.73688 25.0325 9.17259 24.9772 9.55989H18.4623C18.4899 10.376 18.6905 11.0399 19.064 11.5517C19.4374 12.0635 20.0045 12.3194 20.7653 12.3194C21.7751 12.3194 22.3768 11.8768 22.5704 10.9915H25.0394C24.8734 12.0013 24.4101 12.7966 23.6493 13.3776C22.8609 13.9862 21.8995 14.2905 20.7653 14.2905C19.4374 14.2905 18.3239 13.8064 17.4249 12.8381C16.4981 11.8284 16.0347 10.5351 16.0347 8.9582C16.0347 7.33984 16.4981 6.03962 17.4249 5.05754C18.3101 4.11696 19.4236 3.64667 20.7653 3.64667C22.1624 3.64667 23.2482 4.13771 24.0228 5.11979ZM20.7861 5.59699C20.0945 5.59699 19.555 5.82522 19.1677 6.28168C18.7804 6.72431 18.5522 7.29834 18.483 8.00378H22.7779C22.7779 6.91104 22.4321 6.17794 21.7405 5.80448C21.4777 5.66615 21.1595 5.59699 20.7861 5.59699ZM34.8797 5.82522C35.5298 4.37285 36.671 3.64667 38.3032 3.64667C39.5066 3.64667 40.4402 4.05471 41.1042 4.87081C41.7405 5.64541 42.0586 6.72431 42.0586 8.10752V14H39.5896V8.10752C39.5896 7.36059 39.4097 6.80039 39.0501 6.42692C38.6905 6.03962 38.1856 5.84597 37.5355 5.84597C36.8854 5.84597 36.3529 6.12953 35.9379 6.69665C35.5229 7.26376 35.3016 8.12135 35.2739 9.26942V14H32.8257V8.10752C32.8257 7.36059 32.6458 6.80039 32.2862 6.42692C31.9266 6.03962 31.4217 5.84597 30.7716 5.84597C30.1215 5.84597 29.5613 6.13645 29.091 6.71739C28.6345 7.29834 28.3925 8.16977 28.3648 9.33166V14H25.9165V3.91639H28.0536L28.3233 5.65924C28.9873 4.31752 30.0523 3.64667 31.5185 3.64667C32.3623 3.64667 33.0608 3.84032 33.6141 4.22761C34.1812 4.61491 34.6031 5.14745 34.8797 5.82522ZM50.5699 5.11979C50.9157 5.56241 51.1716 6.0742 51.3376 6.65515C51.5174 7.2361 51.6073 7.76863 51.6073 8.25276C51.6073 8.73688 51.5796 9.17259 51.5243 9.55989H45.0094C45.037 10.376 45.2376 11.0399 45.6111 11.5517C45.9845 12.0635 46.5517 12.3194 47.3124 12.3194C48.3222 12.3194 48.9239 11.8768 49.1175 10.9915H51.5865C51.4206 12.0013 50.9572 12.7966 50.1964 13.3776C49.408 13.9862 48.4467 14.2905 47.3124 14.2905C45.9845 14.2905 44.8711 13.8064 43.972 12.8381C43.0452 11.8284 42.5818 10.5351 42.5818 8.9582C42.5818 7.33984 43.0452 6.03962 43.972 5.05754C44.8572 4.11696 45.9707 3.64667 47.3124 3.64667C48.7095 3.64667 49.7953 4.13771 50.5699 5.11979ZM47.3332 5.59699C46.6416 5.59699 46.1021 5.82522 45.7148 6.28168C45.3275 6.72431 45.0993 7.29834 45.0301 8.00378H49.325C49.325 6.91104 48.9792 6.17794 48.2876 5.80448C48.0248 5.66615 47.7066 5.59699 47.3332 5.59699ZM63.8944 11.8629C63.3135 13.4813 62.2 14.2905 60.554 14.2905C58.8664 14.2905 57.4763 13.6542 56.3836 12.3816C55.2494 11.0676 54.6822 9.38699 54.6822 7.33984C54.6822 5.18203 55.2908 3.45302 56.5081 2.1528C57.6838 0.894076 59.1984 0.264715 61.0519 0.264715C62.3106 0.264715 63.3619 0.541357 64.2056 1.09464C65.0632 1.63409 65.7341 2.49169 66.2182 3.66741L63.7077 4.24836C62.9746 3.07263 62.0478 2.48477 60.9274 2.48477C59.9039 2.48477 59.0532 2.92048 58.3754 3.7919C57.67 4.67716 57.3173 5.8598 57.3173 7.33984C57.3173 8.73688 57.6354 9.87112 58.2717 10.7425C58.8941 11.6001 59.724 12.0289 60.7614 12.0289C61.6467 12.0289 62.3729 11.7454 62.94 11.1782C63.521 10.5973 63.8114 9.80195 63.8114 8.79221V8.70922L60.7822 8.64697V7.07011H66.156V14H64.1641L63.8944 11.8629ZM74.6369 5.11979C74.9827 5.56241 75.2386 6.0742 75.4046 6.65515C75.5844 7.2361 75.6744 7.76863 75.6744 8.25276C75.6744 8.73688 75.6467 9.17259 75.5914 9.55989H69.0764C69.1041 10.376 69.3047 11.0399 69.6781 11.5517C70.0516 12.0635 70.6187 12.3194 71.3795 12.3194C72.3892 12.3194 72.9909 11.8768 73.1846 10.9915H75.6536C75.4876 12.0013 75.0242 12.7966 74.2635 13.3776C73.475 13.9862 72.5137 14.2905 71.3795 14.2905C70.0516 14.2905 68.9381 13.8064 68.039 12.8381C67.1123 11.8284 66.6489 10.5351 66.6489 8.9582C66.6489 7.33984 67.1123 6.03962 68.039 5.05754C68.9243 4.11696 70.0378 3.64667 71.3795 3.64667C72.7765 3.64667 73.8623 4.13771 74.6369 5.11979ZM71.4002 5.59699C70.7086 5.59699 70.1692 5.82522 69.7819 6.28168C69.3946 6.72431 69.1663 7.29834 69.0972 8.00378H73.3921C73.3921 6.91104 73.0463 6.17794 72.3546 5.80448C72.0918 5.66615 71.7737 5.59699 71.4002 5.59699ZM78.9375 5.65924C79.6014 4.31752 80.6665 3.64667 82.1327 3.64667C83.3776 3.64667 84.3113 4.05471 84.9337 4.87081C85.57 5.6869 85.8881 6.76581 85.8881 8.10752V14H83.4398V8.10752C83.4398 7.36059 83.26 6.80039 82.9004 6.42692C82.5408 6.03962 82.0359 5.84597 81.3858 5.84597C80.7357 5.84597 80.1755 6.13645 79.7052 6.71739C79.2487 7.29834 79.0066 8.16977 78.979 9.33166V14H76.5307V3.91639H78.6678L78.9375 5.65924ZM94.4166 5.11979C94.7624 5.56241 95.0183 6.0742 95.1843 6.65515C95.3641 7.2361 95.454 7.76863 95.454 8.25276C95.454 8.73688 95.4263 9.17259 95.371 9.55989H88.8561C88.8837 10.376 89.0843 11.0399 89.4578 11.5517C89.8312 12.0635 90.3984 12.3194 91.1591 12.3194C92.1689 12.3194 92.7706 11.8768 92.9642 10.9915H95.4333C95.2673 12.0013 94.8039 12.7966 94.0431 13.3776C93.2547 13.9862 92.2934 14.2905 91.1591 14.2905C89.8312 14.2905 88.7178 13.8064 87.8187 12.8381C86.8919 11.8284 86.4285 10.5351 86.4285 8.9582C86.4285 7.33984 86.8919 6.03962 87.8187 5.05754C88.7039 4.11696 89.8174 3.64667 91.1591 3.64667C92.5562 3.64667 93.642 4.13771 94.4166 5.11979ZM91.1799 5.59699C90.4883 5.59699 89.9488 5.82522 89.5615 6.28168C89.1742 6.72431 88.946 7.29834 88.8768 8.00378H93.1717C93.1717 6.91104 92.8259 6.17794 92.1343 5.80448C91.8715 5.66615 91.5533 5.59699 91.1799 5.59699ZM98.7586 5.90822C99.3672 4.45584 100.28 3.72966 101.497 3.72966C101.733 3.72966 102.03 3.77807 102.39 3.8749L102.348 6.32318C101.961 6.24019 101.58 6.19869 101.207 6.19869C99.5747 6.19869 98.7586 7.32601 98.7586 9.58064V14H96.3103V3.89564H98.7586V5.90822ZM106.187 8.10752C106.989 8.10752 107.916 8.23893 108.967 8.50174V7.50582C108.967 6.80039 108.822 6.28168 108.531 5.94971C108.255 5.60391 107.791 5.43101 107.141 5.43101C106.505 5.43101 106.014 5.56241 105.668 5.82522C105.322 6.0742 105.149 6.43384 105.149 6.90413H102.473C102.473 5.75606 102.874 4.92614 103.676 4.41435C104.492 3.90256 105.627 3.64667 107.079 3.64667C109.154 3.64667 110.496 4.37285 111.104 5.82522C111.312 6.32318 111.415 6.91104 111.415 7.58882V14H109.278L109.092 12.6514C108.441 13.7441 107.446 14.2905 106.104 14.2905C104.804 14.2905 103.794 13.9723 103.075 13.3361C102.411 12.7274 102.079 11.9598 102.079 11.033C102.079 10.0924 102.445 9.37316 103.178 8.8752C103.911 8.36342 104.914 8.10752 106.187 8.10752ZM108.967 10.0578C108.151 9.83653 107.39 9.72588 106.685 9.72588C105.357 9.72588 104.693 10.1685 104.693 11.0538C104.693 11.4272 104.845 11.7523 105.149 12.0289C105.454 12.2917 105.938 12.4231 106.602 12.4231C107.28 12.4231 107.833 12.2018 108.262 11.7592C108.704 11.3027 108.939 10.7356 108.967 10.0578ZM118.594 13.751C117.681 14.1107 116.962 14.2905 116.436 14.2905C115.91 14.2905 115.447 14.2282 115.046 14.1037C114.659 13.9793 114.313 13.7925 114.009 13.5435C113.372 12.9764 113.054 12.1949 113.054 11.199V5.5555H111.643V3.91639H113.054V1.26063H115.502V3.91639H118.241V5.5555H115.502V11.116C115.502 11.9459 115.897 12.3609 116.685 12.3609C117.086 12.3609 117.605 12.2502 118.241 12.0289L118.594 13.751ZM122.983 3.64667C123.661 3.64667 124.297 3.75732 124.892 3.97864C125.486 4.18612 125.998 4.51117 126.427 4.9538C127.381 5.92205 127.859 7.26376 127.859 8.97894C127.859 10.6665 127.381 11.9943 126.427 12.9626C125.569 13.8478 124.421 14.2905 122.983 14.2905C121.544 14.2905 120.382 13.8478 119.497 12.9626C118.543 12.0082 118.065 10.6803 118.065 8.97894C118.065 7.24993 118.543 5.90822 119.497 4.9538C120.368 4.08238 121.53 3.64667 122.983 3.64667ZM125.41 8.9582C125.41 7.89312 125.203 7.09778 124.788 6.57216C124.373 6.03271 123.792 5.76298 123.045 5.76298C122.312 5.76298 121.71 6.03271 121.24 6.57216C120.77 7.09778 120.534 7.89312 120.534 8.9582C120.534 10.0233 120.742 10.8255 121.157 11.365C121.586 11.8906 122.167 12.1534 122.9 12.1534C123.633 12.1534 124.235 11.8906 124.705 11.365C125.175 10.8255 125.41 10.0233 125.41 8.9582ZM131.145 5.90822C131.754 4.45584 132.667 3.72966 133.884 3.72966C134.119 3.72966 134.417 3.77807 134.776 3.8749L134.735 6.32318C134.347 6.24019 133.967 6.19869 133.594 6.19869C131.961 6.19869 131.145 7.32601 131.145 9.58064V14H128.697V3.89564H131.145V5.90822Z" fill="white"/>
</svg>
